<?xml version="1.0" encoding="utf-8"?>
<!-- Generator: Adobe Illustrator 22.0.1, SVG Export Plug-In . SVG Version: 6.00 Build 0)  -->
<svg version="1.1" id="Layer_1" xmlns="http://www.w3.org/2000/svg" xmlns:xlink="http://www.w3.org/1999/xlink" x="0px" y="0px"
	 viewBox="0 0 20 20" style="enable-background:new 0 0 20 20;" xml:space="preserve">
<style type="text/css">
	.st0{fill:#245D38;}
</style>
<title>bgr</title>
<g id="Layer_2_1_">
	<g id="Symbol_Editing_Mode">
		<path class="st0" d="M2.5,16h15c0.8,0,1.5,0.7,1.5,1.5l0,0c0,0.8-0.7,1.5-1.5,1.5h-15C1.7,19,1,18.3,1,17.5l0,0
			C1,16.7,1.7,16,2.5,16z"/>
		<path class="st0" d="M2.5,8.5h15c0.8,0,1.5,0.7,1.5,1.5l0,0c0,0.8-0.7,1.5-1.5,1.5h-15C1.7,11.5,1,10.8,1,10l0,0
			C1,9.2,1.7,8.5,2.5,8.5z"/>
		<path class="st0" d="M2.5,1h15C18.3,1,19,1.7,19,2.5l0,0C19,3.3,18.3,4,17.5,4h-15C1.7,4,1,3.3,1,2.5l0,0C1,1.7,1.7,1,2.5,1z"/>
	</g>
</g>
</svg>
