<svg xmlns="http://www.w3.org/2000/svg" width="40" height="40" viewBox="0 0 40 40">
  <g id="instagram" transform="translate(-0.9)">
    <path id="Path_30" data-name="Path 30" d="M40.8,11.76a14.593,14.593,0,0,0-.932-4.854,9.833,9.833,0,0,0-2.31-3.547,9.779,9.779,0,0,0-3.539-2.3A14.636,14.636,0,0,0,29.164.125C27.019.023,26.337,0,20.9,0S14.789.023,12.66.117a14.593,14.593,0,0,0-4.854.932,9.8,9.8,0,0,0-3.547,2.31A9.779,9.779,0,0,0,1.957,6.9a14.636,14.636,0,0,0-.932,4.854C.923,13.9.9,14.57.9,20s.023,6.115.117,8.244A14.593,14.593,0,0,0,1.949,33.1a9.937,9.937,0,0,0,2.31,3.547,9.779,9.779,0,0,0,3.539,2.3,14.636,14.636,0,0,0,4.854.932c2.13.094,2.811.117,8.244.117s6.115-.023,8.244-.117a14.594,14.594,0,0,0,4.854-.932,10.247,10.247,0,0,0,5.856-5.856,14.636,14.636,0,0,0,.932-4.854C40.877,26.1,40.9,25.43,40.9,20S40.892,13.9,40.8,11.76ZM37.2,28.1a10.924,10.924,0,0,1-.689,3.711,6.644,6.644,0,0,1-3.8,3.8A11.015,11.015,0,0,1,29,36.3c-2.114.094-2.74.117-8.08.117s-5.982-.023-8.08-.117a10.924,10.924,0,0,1-3.711-.689,6.074,6.074,0,0,1-2.294-1.5,6.262,6.262,0,0,1-1.5-2.294,11.015,11.015,0,0,1-.689-3.711c-.094-2.114-.117-2.74-.117-8.08s.023-5.982.117-8.08a10.924,10.924,0,0,1,.689-3.711,5.922,5.922,0,0,1,1.5-2.3,6.262,6.262,0,0,1,2.294-1.5A11.015,11.015,0,0,1,12.84,3.75c2.114-.094,2.74-.117,8.08-.117S26.9,3.656,29,3.75a10.924,10.924,0,0,1,3.711.689A6.074,6.074,0,0,1,35,5.935a6.228,6.228,0,0,1,1.5,2.3,11.015,11.015,0,0,1,.689,3.711c.094,2.114.117,2.74.117,8.08S37.291,25.986,37.2,28.1Z" transform="translate(0 0)" fill="#fff"/>
    <path id="Path_31" data-name="Path 31" d="M135.38,124.3a10.276,10.276,0,1,0,10.28,10.272A10.281,10.281,0,0,0,135.38,124.3Zm0,16.943a6.671,6.671,0,1,1,6.671-6.671A6.671,6.671,0,0,1,135.38,141.243Z" transform="translate(-114.476 -114.568)" fill="#fff"/>
    <path id="Path_32" data-name="Path 32" d="M367.192,90.9a2.4,2.4,0,1,1-2.4-2.4A2.4,2.4,0,0,1,367.192,90.9Z" transform="translate(-333.197 -81.571)" fill="#fff"/>
  </g>
</svg>
