<svg xmlns="http://www.w3.org/2000/svg" width="40" height="40.008" viewBox="0 0 40 40.008">
  <path id="twitter" d="M37.124,0H2.883A2.881,2.881,0,0,0,0,2.883V37.117a2.883,2.883,0,0,0,2.883,2.891H37.117A2.881,2.881,0,0,0,40,37.124V2.883A2.87,2.87,0,0,0,37.124,0ZM29.138,15.6c.008.2.016.4.016.594A12.978,12.978,0,0,1,16.089,29.256h0a12.98,12.98,0,0,1-7.04-2.063,10.152,10.152,0,0,0,1.094.063,9.205,9.205,0,0,0,5.7-1.969,4.606,4.606,0,0,1-4.29-3.188,4.516,4.516,0,0,0,.86.086,4.4,4.4,0,0,0,1.211-.164,4.587,4.587,0,0,1-3.68-4.5v-.063a4.469,4.469,0,0,0,2.079.57,4.574,4.574,0,0,1-2.039-3.821,4.5,4.5,0,0,1,.625-2.305,13.041,13.041,0,0,0,9.463,4.8,4.609,4.609,0,0,1,4.477-5.642A4.564,4.564,0,0,1,27.9,12.51a8.962,8.962,0,0,0,2.915-1.117,4.627,4.627,0,0,1-2.016,2.54,9.01,9.01,0,0,0,2.633-.727A9.294,9.294,0,0,1,29.138,15.6Z" fill="#fff"/>
</svg>
