<?xml version="1.0" encoding="utf-8"?>
<!-- Generator: Adobe Illustrator 21.1.0, SVG Export Plug-In . SVG Version: 6.00 Build 0)  -->
<svg version="1.1" id="Layer_1" xmlns="http://www.w3.org/2000/svg" xmlns:xlink="http://www.w3.org/1999/xlink" x="0px" y="0px"
	 viewBox="0 0 65 57" style="enable-background:new 0 0 65 57;" xml:space="preserve">
<style type="text/css">
	.st0{fill:#275D38;}
</style>
<path class="st0" d="M4.8,45.7h1v4.9c0,0.5-0.4,1-1,1h-2c-0.5,0-1-0.4-1-1v-4.9h1v4.7c0,0.1,0.1,0.2,0.2,0.2h1.3
	c0.1,0,0.2-0.1,0.2-0.2L4.8,45.7L4.8,45.7z"/>
<polygon class="st0" points="13.4,51.5 12.4,51.5 10.2,47.8 10.2,51.5 9.2,51.5 9.2,45.7 10.2,45.7 12.4,49.5 12.4,45.7 13.4,45.7 
	"/>
<rect x="16.8" y="45.7" class="st0" width="1" height="5.8"/>
<polygon class="st0" points="23.4,51.5 22.3,51.5 20.6,45.7 21.6,45.7 22.9,49.9 24.1,45.7 25.1,45.7 "/>
<polygon class="st0" points="27.8,45.7 31.3,45.7 31.3,46.7 28.8,46.7 28.8,48.1 31.1,48.1 31.1,49.1 28.8,49.1 28.8,50.6 
	31.3,50.6 31.3,51.5 27.8,51.5 "/>
<path class="st0" d="M37.7,46.9c0-0.1-0.1-0.2-0.2-0.2h-1.7v1.7h1.7c0.1,0,0.2-0.1,0.2-0.2V46.9z M36.9,49.3h-1.1v2.3h-1v-5.9h3
	c0.5,0,1,0.4,1,1v1.7c0,0.5-0.3,0.8-0.7,0.9l1.1,2.3H38L36.9,49.3z"/>
<path class="st0" d="M43.1,48.8c-0.5-0.2-0.9-0.4-0.9-0.9v-1.2c0-0.5,0.4-1,0.9-1h1.8c0.5,0,1,0.4,1,1v0.7l-1,0.2v-0.6
	c0-0.1-0.1-0.2-0.2-0.2h-1.2c-0.1,0-0.2,0.1-0.2,0.2v0.7c0,0.1,0.1,0.2,0.2,0.3c0.5,0.1,1,0.3,1.6,0.4c0.5,0.1,0.9,0.4,0.9,0.9v1.3
	c0,0.5-0.4,1-0.9,1h-1.9c-0.5,0-1-0.4-1-1v-0.7l1-0.2v0.6c0,0.1,0.1,0.2,0.2,0.2h1.2c0.1,0,0.2-0.1,0.2-0.2v-0.8
	c0-0.1-0.1-0.2-0.2-0.2C44,49.1,43.7,49,43.1,48.8"/>
<rect x="49.2" y="45.7" class="st0" width="1" height="5.8"/>
<polygon class="st0" points="52.8,45.7 57,45.7 57,46.7 55.4,46.7 55.4,51.5 54.4,51.5 54.4,46.7 52.8,46.7 "/>
<polygon class="st0" points="60.8,48 61.9,45.7 63,45.7 61.3,49.2 61.3,51.5 60.3,51.5 60.3,49.2 58.5,45.7 59.6,45.7 "/>
<path class="st0" d="M4.5,5.6h0.9V10c0,0.5-0.4,0.9-0.9,0.9H2.8C2.3,10.9,2,10.5,2,10V5.6h0.9v4.2C2.9,9.9,3,10,3.1,10h1.2
	c0.1,0,0.2-0.1,0.2-0.2L4.5,5.6L4.5,5.6z"/>
<polygon class="st0" points="7.5,5.6 11.3,5.6 11.3,6.5 9.9,6.5 9.9,10.9 8.9,10.9 8.9,6.5 7.5,6.5 "/>
<path class="st0" d="M14.2,8.9h1.2l-0.6-2L14.2,8.9z M17,10.9H16l-0.4-1.1h-1.8l-0.4,1.1h-0.9l1.8-5.3h0.9L17,10.9z"/>
<polygon class="st0" points="22.2,8.6 20.5,8.6 20.5,10.9 19.5,10.9 19.5,5.6 20.5,5.6 20.5,7.8 22.2,7.8 22.2,5.6 23.2,5.6 
	23.2,10.9 22.2,10.9 "/>
<polygon class="st0" points="31.9,10.9 31,10.9 29.4,5.6 30.3,5.6 31.4,9.5 32.6,5.6 33.5,5.6 "/>
<path class="st0" d="M36.7,8.9h1.2l-0.6-2L36.7,8.9z M39.5,10.9h-1l-0.4-1.1h-1.8l-0.4,1.1h-0.9l1.8-5.3h0.9L39.5,10.9z"/>
<polygon class="st0" points="42.1,5.6 43.1,5.6 43.1,10 45.2,10 45.2,10.9 42.1,10.9 "/>
<polygon class="st0" points="47.9,5.6 48.9,5.6 48.9,10 51,10 51,10.9 47.9,10.9 "/>
<polygon class="st0" points="53.6,5.6 56.8,5.6 56.8,6.5 54.6,6.5 54.6,7.8 56.6,7.8 56.6,8.7 54.6,8.7 54.6,10 56.8,10 56.8,10.9 
	53.6,10.9 "/>
<polygon class="st0" points="61.1,7.7 62.1,5.6 63.1,5.6 61.5,8.8 61.5,10.9 60.6,10.9 60.6,8.8 59,5.6 60,5.6 "/>
<rect y="41.4" class="st0" width="65" height="1.2"/>
<rect y="54.6" class="st0" width="65" height="2.3"/>
<rect y="0.1" class="st0" width="65" height="2.3"/>
<rect y="14.1" class="st0" width="65" height="1.2"/>
<path class="st0" d="M64.1,53.2v0.9h-0.2v-1.3h0.2l0.4,0.8l0.4-0.8H65v1.3h-0.2v-0.9l-0.3,0.7h-0.1L64.1,53.2z M62.8,52.8h0.9V53
	h-0.4v1.1h-0.2V53h-0.4L62.8,52.8L62.8,52.8z"/>
<polygon class="st0" points="37.9,18.8 32.5,33.5 27,18.8 22.7,18.8 29.7,37.9 35.2,37.9 42.2,18.8 "/>
<polygon class="st0" points="3.5,37.9 18.4,37.9 20.1,33.5 20.1,18.8 11.5,18.8 11.5,22.9 15.7,22.9 15.7,33.5 6.2,33.5 6.2,18.8 
	1.9,18.8 1.9,33.5 "/>
<polygon class="st0" points="58.7,33.5 49.2,33.5 49.2,18.8 44.9,18.8 44.9,33.5 46.5,37.9 61.4,37.9 63.1,33.5 63.1,18.8 
	58.7,18.8 "/>
</svg>
